<svg width="800" height="600" viewBox="0 0 800 600" fill="none" xmlns="http://www.w3.org/2000/svg">
  <!-- Modern Lavender Gradient Background -->
  <rect width="800" height="600" fill="#F8F9FA"/>
  <rect width="800" height="600" fill="url(#paint0_radial)" fill-opacity="0.5"/>
  
  <!-- Content Muse Card Preview -->
  <g filter="url(#filter0_d)">
    <rect x="200" y="150" width="400" height="300" rx="24" fill="white"/>
    
    <!-- Profile Placeholder -->
    <circle cx="260" cy="210" r="24" fill="#F1F0FB"/>
    <rect x="300" y="196" width="120" height="12" rx="6" fill="#F1F0FB"/>
    <rect x="300" y="216" width="80" height="10" rx="5" fill="#F1F0FB" fill-opacity="0.5"/>
    
    <!-- AI Sparkle Icon representing content generation -->
    <rect x="300" y="270" width="200" height="120" rx="16" fill="url(#paint1_linear)" fill-opacity="0.1"/>
    <path d="M400 300C400 300 404 315 415 315C404 315 400 330 400 330C400 330 396 315 385 315C396 315 400 300 400 300Z" fill="url(#paint1_linear)"/>
    <path d="M430 325C430 325 432 332.5 437.5 332.5C432 332.5 430 340 430 340C430 340 428 332.5 422.5 332.5C428 332.5 430 325 430 325Z" fill="url(#paint1_linear)" fill-opacity="0.6"/>
    
    <!-- Content Lines -->
    <rect x="240" y="400" width="320" height="8" rx="4" fill="#F1F0FB"/>
    <rect x="240" y="416" width="280" height="8" rx="4" fill="#F1F0FB" fill-opacity="0.6"/>
  </g>
  
  <defs>
    <filter id="filter0_d" x="160" y="120" width="480" height="380" filterUnits="userSpaceOnUse" color-interpolation-filters="sRGB">
      <feFlood flood-opacity="0" result="BackgroundImageFix"/>
      <feColorMatrix in="SourceAlpha" type="matrix" values="0 0 0 0 0 0 0 0 0 0 0 0 0 0 0 0 0 0 127 0" result="hardAlpha"/>
      <feOffset dy="10"/>
      <feGaussianBlur stdDeviation="15"/>
      <feComposite in2="hardAlpha" operator="out"/>
      <feColorMatrix type="matrix" values="0 0 0 0 0.607843 0 0 0 0 0.529412 0 0 0 0 0.960784 0 0 0 0.1 0"/>
      <feBlend mode="normal" in2="BackgroundImageFix" result="effect1_dropShadow"/>
      <feBlend mode="normal" in="SourceGraphic" in2="effect1_dropShadow" result="shape"/>
    </filter>
    <radialGradient id="paint0_radial" cx="0" cy="0" r="1" gradientUnits="userSpaceOnUse" gradientTransform="translate(400 300) rotate(90) scale(400 533.333)">
      <stop stop-color="#9b87f5" stop-opacity="0.1"/>
      <stop offset="1" stop-color="white" stop-opacity="0"/>
    </radialGradient>
    <linearGradient id="paint1_linear" x1="385" y1="300" x2="437.5" y2="340" gradientUnits="userSpaceOnUse">
      <stop stop-color="#9b87f5"/>
      <stop offset="1" stop-color="#d946ef"/>
    </linearGradient>
  </defs>
</svg>
